<svg width="1000" height="1000" viewBox="0 0 1000 1000" xmlns="http://www.w3.org/2000/svg"><defs/><path fill="#c7b352" transform="matrix(0.3999654369510909 0 0 0.3999654369510909 59.25341310107977 23.564589210854248)" d="M 255.6360719333 1218.2375887612 C 253.8360719333 1217.6375887612 252.7360719333 1218.6375887612 253.1360719333 1220.4375887612 C 254.0360719333 1224.9375887612 255.1360719333 1229.2375887612 256.5360719333 1233.5375887612 C 269.4360719333 1274.2375887612 302.2360719333 1306.1375887612 343.4360719333 1317.8375887612 C 347.4360719333 1318.9375887612 351.5360719333 1319.9375887612 355.6360719333 1320.6375887612 C 357.4360719333 1320.9375887612 358.5360719333 1319.7375887612 358.0360719333 1317.9375887612 L 338.0360719333 1247.6375887612 L 255.6360719333 1218.2375887612 Z M 271.6360719333 1238.9375887612 L 327.4360719333 1258.9375887612 L 339.5360719333 1303.6375887612 C 308.7360719333 1292.6375887612 284.0360719333 1268.9375887612 271.6360719333 1238.9375887612 Z"/><path fill="#c7b352" transform="matrix(0.3999654369510909 0 0 0.3999654369510909 59.25341310107977 23.564589210854248)" d="M 257.2360719333 1153.9375887612 C 255.8360719333 1158.1375887612 254.5360719333 1162.5375887612 253.5360719333 1166.9375887612 C 253.1360719333 1168.7375887612 254.2360719333 1169.7375887612 256.0360719333 1169.1375887612 L 501.8360719333 1084.0375887612 C 503.6360719333 1083.4375887612 504.3360719333 1084.2375887612 503.5360719333 1085.9375887612 L 386.5360719333 1319.5375887612 C 385.7360719333 1321.2375887612 386.5360719333 1322.4375887612 388.4360719333 1322.3375887612 C 392.9360719333 1321.9375887612 397.4360719333 1321.3375887612 401.8360719333 1320.5375887612 C 461.1360719333 1309.4375887612 506.0360719333 1257.3375887612 506.0360719333 1194.9375887612 C 506.0360719333 1174.6375887612 501.3360719333 1155.5375887612 492.8360719333 1138.4375887612 L 530.5360719333 1062.1375887612 C 531.3360719333 1060.4375887612 530.6360719333 1059.6375887612 528.8360719333 1060.2375887612 L 448.3360719333 1088.0375887612 C 428.2360719333 1074.8375887612 404.1360719333 1067.0375887612 378.2360719333 1067.0375887612 C 322.1360719333 1067.1375887612 274.3360719333 1103.5375887612 257.2360719333 1153.9375887612 Z M 272.5360719333 1148.6375887612 C 290.4360719333 1107.9375887612 331.0360719333 1079.5375887612 378.2360719333 1079.5375887612 C 398.0360719333 1079.5375887612 416.7360719333 1084.5375887612 433.0360719333 1093.3375887612 L 272.5360719333 1148.6375887612 Z M 493.6360719333 1194.9375887612 C 493.6360719333 1247.9375887612 457.7360719333 1292.6375887612 409.0360719333 1306.1375887612 L 485.7360719333 1152.7375887612 C 490.8360719333 1165.8375887612 493.6360719333 1180.0375887612 493.6360719333 1194.9375887612 Z"/><path fill="#0f3877" transform="matrix(0.3999654369510909 0 0 0.3999654369510909 59.25341310107977 23.564589210854248)" d="M 406.2360719333 1172.1375887612 L 334.7360719333 1232.8375887612 L 228.2360719333 1194.7375887612 C 226.4360719333 1194.1375887612 226.4360719333 1193.1375887612 228.2360719333 1192.5375887612 L 476.0360719333 1106.6375887612 C 477.8360719333 1106.0375887612 478.5360719333 1106.8375887612 477.7360719333 1108.5375887612 L 373.4360719333 1317.0375887612 C 372.6360719333 1318.7375887612 371.5360719333 1318.6375887612 371.0360719333 1316.8375887612 L 351.1360719333 1242.9375887612 L 406.2360719333 1172.1375887612 Z"/><path id="text" fill="#0f3877" transform="matrix(0.6838788945241785 0 0 0.6838788945241785 240.3765601988987 39.54454160188203)" d="M 89.58016910064 709.49170567156 C 84.62016910064 708.05170567156 80.63616910064 706.17970567156 77.62816910064 703.87570567156 L 82.90816910064 692.16370567156 C 85.78816910064 694.27570567156 89.21216910064 695.97170567156 93.18016910064 697.25170567156 C 97.14816910064 698.53170567156 101.11616910064 699.17170567156 105.08416910064 699.17170567156 C 109.50016910064 699.17170567156 112.76416910064 698.51570567156 114.87616910064 697.20370567156 C 116.98816910064 695.89170567156 118.04416910064 694.14770567156 118.04416910064 691.97170567156 C 118.04416910064 690.37170567156 117.42016910064 689.04370567156 116.17216910064 687.98770567156 C 114.92416910064 686.93170567156 113.32416910064 686.08370567156 111.37216910064 685.44370567156 C 109.42016910064 684.80370567156 106.78016910064 684.09970567156 103.45216910064 683.33170567156 C 98.33216910064 682.11570567156 94.14016910064 680.89970567156 90.87616910064 679.68370567156 C 87.61216910064 678.46770567156 84.81216910064 676.51570567156 82.47616910064 673.82770567156 C 80.14016910064 671.13970567156 78.97216910064 667.55570567156 78.97216910064 663.07570567156 C 78.97216910064 659.17170567156 80.02816910064 655.63570567156 82.14016910064 652.46770567156 C 84.25216910064 649.29970567156 87.43616910064 646.78770567156 91.69216910064 644.93170567156 C 95.94816910064 643.07570567156 101.14816910064 642.14770567156 107.29216910064 642.14770567156 C 111.58016910064 642.14770567156 115.77216910064 642.65970567156 119.86816910064 643.68370567156 C 123.96416910064 644.70770567156 127.54816910064 646.17970567156 130.62016910064 648.09970567156 L 125.82016910064 659.90770567156 C 119.61216910064 656.38770567156 113.40416910064 654.62770567156 107.19616910064 654.62770567156 C 102.84416910064 654.62770567156 99.62816910064 655.33170567156 97.54816910064 656.73970567156 C 95.46816910064 658.14770567156 94.42816910064 660.00370567156 94.42816910064 662.30770567156 C 94.42816910064 664.61170567156 95.62816910064 666.32370567156 98.02816910064 667.44370567156 C 100.42816910064 668.56370567156 104.09216910064 669.66770567156 109.02016910064 670.75570567156 C 114.14016910064 671.97170567156 118.33216910064 673.18770567156 121.59616910064 674.40370567156 C 124.86016910064 675.61970567156 127.66016910064 677.53970567156 129.99616910064 680.16370567156 C 132.33216910064 682.78770567156 133.50016910064 686.33970567156 133.50016910064 690.81970567156 C 133.50016910064 694.65970567156 132.42816910064 698.16370567156 130.28416910064 701.33170567156 C 128.14016910064 704.49970567156 124.92416910064 707.01170567156 120.63616910064 708.86770567156 C 116.34816910064 710.72370567156 111.13216910064 711.65170567156 104.98816910064 711.65170567156 C 99.67616910064 711.65170567156 94.54016910064 710.93170567156 89.58016910064 709.49170567156 Z M 182.36416910064 663.79570567156 C 186.65216910064 667.60370567156 188.79616910064 673.34770567156 188.79616910064 681.02770567156 L 188.79616910064 710.49970567156 L 174.78016910064 710.49970567156 L 174.78016910064 704.06770567156 C 171.96416910064 708.86770567156 166.71616910064 711.26770567156 159.03616910064 711.26770567156 C 155.06816910064 711.26770567156 151.62816910064 710.59570567156 148.71616910064 709.25170567156 C 145.80416910064 707.90770567156 143.58016910064 706.05170567156 142.04416910064 703.68370567156 C 140.50816910064 701.31570567156 139.74016910064 698.62770567156 139.74016910064 695.61970567156 C 139.74016910064 690.81970567156 141.54816910064 687.04370567156 145.16416910064 684.29170567156 C 148.78016910064 681.53970567156 154.36416910064 680.16370567156 161.91616910064 680.16370567156 L 173.82016910064 680.16370567156 C 173.82016910064 676.89970567156 172.82816910064 674.38770567156 170.84416910064 672.62770567156 C 168.86016910064 670.86770567156 165.88416910064 669.98770567156 161.91616910064 669.98770567156 C 159.16416910064 669.98770567156 156.46016910064 670.41970567156 153.80416910064 671.28370567156 C 151.14816910064 672.14770567156 148.89216910064 673.31570567156 147.03616910064 674.78770567156 L 141.66016910064 664.32370567156 C 144.47616910064 662.33970567156 147.85216910064 660.80370567156 151.78816910064 659.71570567156 C 155.72416910064 658.62770567156 159.77216910064 658.08370567156 163.93216910064 658.08370567156 C 171.93216910064 658.08370567156 178.07616910064 659.98770567156 182.36416910064 663.79570567156 Z M 169.59616910064 699.41170567156 C 171.58016910064 698.22770567156 172.98816910064 696.48370567156 173.82016910064 694.17970567156 L 173.82016910064 688.89970567156 L 163.54816910064 688.89970567156 C 157.40416910064 688.89970567156 154.33216910064 690.91570567156 154.33216910064 694.94770567156 C 154.33216910064 696.86770567156 155.08416910064 698.38770567156 156.58816910064 699.50770567156 C 158.09216910064 700.62770567156 160.15616910064 701.18770567156 162.78016910064 701.18770567156 C 165.34016910064 701.18770567156 167.61216910064 700.59570567156 169.59616910064 699.41170567156 Z M 218.74816910064 660.00370567156 L 231.99616910064 660.00370567156 L 231.99616910064 671.52370567156 L 219.13216910064 671.52370567156 L 219.13216910064 710.49970567156 L 204.15616910064 710.49970567156 L 204.15616910064 671.52370567156 L 196.18816910064 671.52370567156 L 196.18816910064 660.00370567156 L 204.15616910064 660.00370567156 L 204.15616910064 657.69970567156 C 204.15616910064 651.81170567156 205.90016910064 647.13970567156 209.38816910064 643.68370567156 C 212.87616910064 640.22770567156 217.78816910064 638.49970567156 224.12416910064 638.49970567156 C 226.36416910064 638.49970567156 228.49216910064 638.73970567156 230.50816910064 639.21970567156 C 232.52416910064 639.69970567156 234.20416910064 640.38770567156 235.54816910064 641.28370567156 L 231.61216910064 652.13170567156 C 229.88416910064 650.91570567156 227.86816910064 650.30770567156 225.56416910064 650.30770567156 C 221.02016910064 650.30770567156 218.74816910064 652.80370567156 218.74816910064 657.79570567156 L 218.74816910064 660.00370567156 Z M 247.16416910064 658.85170567156 L 262.14016910064 658.85170567156 L 262.14016910064 710.49970567156 L 247.16416910064 710.49970567156 L 247.16416910064 658.85170567156 Z M 247.93216910064 649.25170567156 C 246.20416910064 647.65170567156 245.34016910064 645.66770567156 245.34016910064 643.29970567156 C 245.34016910064 640.93170567156 246.20416910064 638.94770567156 247.93216910064 637.34770567156 C 249.66016910064 635.74770567156 251.90016910064 634.94770567156 254.65216910064 634.94770567156 C 257.40416910064 634.94770567156 259.64416910064 635.71570567156 261.37216910064 637.25170567156 C 263.10016910064 638.78770567156 263.96416910064 640.70770567156 263.96416910064 643.01170567156 C 263.96416910064 645.50770567156 263.10016910064 647.57170567156 261.37216910064 649.20370567156 C 259.64416910064 650.83570567156 257.40416910064 651.65170567156 254.65216910064 651.65170567156 C 251.90016910064 651.65170567156 249.66016910064 650.85170567156 247.93216910064 649.25170567156 Z M 297.61216910064 660.00370567156 C 300.65216910064 658.72370567156 304.15616910064 658.08370567156 308.12416910064 658.08370567156 L 308.12416910064 671.90770567156 C 306.46016910064 671.77970567156 305.34016910064 671.71570567156 304.76416910064 671.71570567156 C 300.47616910064 671.71570567156 297.11616910064 672.91570567156 294.68416910064 675.31570567156 C 292.25216910064 677.71570567156 291.03616910064 681.31570567156 291.03616910064 686.11570567156 L 291.03616910064 710.49970567156 L 276.06016910064 710.49970567156 L 276.06016910064 658.85170567156 L 290.36416910064 658.85170567156 L 290.36416910064 665.66770567156 C 292.15616910064 663.17170567156 294.57216910064 661.28370567156 297.61216910064 660.00370567156 Z M 356.02816910064 663.79570567156 C 360.31616910064 667.60370567156 362.46016910064 673.34770567156 362.46016910064 681.02770567156 L 362.46016910064 710.49970567156 L 348.44416910064 710.49970567156 L 348.44416910064 704.06770567156 C 345.62816910064 708.86770567156 340.38016910064 711.26770567156 332.70016910064 711.26770567156 C 328.73216910064 711.26770567156 325.29216910064 710.59570567156 322.38016910064 709.25170567156 C 319.46816910064 707.90770567156 317.24416910064 706.05170567156 315.70816910064 703.68370567156 C 314.17216910064 701.31570567156 313.40416910064 698.62770567156 313.40416910064 695.61970567156 C 313.40416910064 690.81970567156 315.21216910064 687.04370567156 318.82816910064 684.29170567156 C 322.44416910064 681.53970567156 328.02816910064 680.16370567156 335.58016910064 680.16370567156 L 347.48416910064 680.16370567156 C 347.48416910064 676.89970567156 346.49216910064 674.38770567156 344.50816910064 672.62770567156 C 342.52416910064 670.86770567156 339.54816910064 669.98770567156 335.58016910064 669.98770567156 C 332.82816910064 669.98770567156 330.12416910064 670.41970567156 327.46816910064 671.28370567156 C 324.81216910064 672.14770567156 322.55616910064 673.31570567156 320.70016910064 674.78770567156 L 315.32416910064 664.32370567156 C 318.14016910064 662.33970567156 321.51616910064 660.80370567156 325.45216910064 659.71570567156 C 329.38816910064 658.62770567156 333.43616910064 658.08370567156 337.59616910064 658.08370567156 C 345.59616910064 658.08370567156 351.74016910064 659.98770567156 356.02816910064 663.79570567156 Z M 343.26016910064 699.41170567156 C 345.24416910064 698.22770567156 346.65216910064 696.48370567156 347.48416910064 694.17970567156 L 347.48416910064 688.89970567156 L 337.21216910064 688.89970567156 C 331.06816910064 688.89970567156 327.99616910064 690.91570567156 327.99616910064 694.94770567156 C 327.99616910064 696.86770567156 328.74816910064 698.38770567156 330.25216910064 699.50770567156 C 331.75616910064 700.62770567156 333.82016910064 701.18770567156 336.44416910064 701.18770567156 C 339.00416910064 701.18770567156 341.27616910064 700.59570567156 343.26016910064 699.41170567156 Z M 404.22016910064 643.29970567156 L 419.77216910064 643.29970567156 L 419.77216910064 710.49970567156 L 404.22016910064 710.49970567156 L 404.22016910064 643.29970567156 Z M 481.54816910064 663.84370567156 C 485.48416910064 667.68370567156 487.45216910064 673.37970567156 487.45216910064 680.93170567156 L 487.45216910064 710.49970567156 L 472.47616910064 710.49970567156 L 472.47616910064 683.23570567156 C 472.47616910064 679.13970567156 471.58016910064 676.08370567156 469.78816910064 674.06770567156 C 467.99616910064 672.05170567156 465.40416910064 671.04370567156 462.01216910064 671.04370567156 C 458.23616910064 671.04370567156 455.22816910064 672.21170567156 452.98816910064 674.54770567156 C 450.74816910064 676.88370567156 449.62816910064 680.35570567156 449.62816910064 684.96370567156 L 449.62816910064 710.49970567156 L 434.65216910064 710.49970567156 L 434.65216910064 658.85170567156 L 448.95616910064 658.85170567156 L 448.95616910064 664.89970567156 C 450.94016910064 662.72370567156 453.40416910064 661.04370567156 456.34816910064 659.85970567156 C 459.29216910064 658.67570567156 462.52416910064 658.08370567156 466.04416910064 658.08370567156 C 472.44416910064 658.08370567156 477.61216910064 660.00370567156 481.54816910064 663.84370567156 Z M 505.78816910064 709.68370567156 C 501.69216910064 708.62770567156 498.42816910064 707.29970567156 495.99616910064 705.69970567156 L 500.98816910064 694.94770567156 C 503.29216910064 696.41970567156 506.07616910064 697.61970567156 509.34016910064 698.54770567156 C 512.60416910064 699.47570567156 515.80416910064 699.93970567156 518.94016910064 699.93970567156 C 525.27616910064 699.93970567156 528.44416910064 698.37170567156 528.44416910064 695.23570567156 C 528.44416910064 693.76370567156 527.58016910064 692.70770567156 525.85216910064 692.06770567156 C 524.12416910064 691.42770567156 521.46816910064 690.88370567156 517.88416910064 690.43570567156 C 513.66016910064 689.79570567156 510.17216910064 689.05970567156 507.42016910064 688.22770567156 C 504.66816910064 687.39570567156 502.28416910064 685.92370567156 500.26816910064 683.81170567156 C 498.25216910064 681.69970567156 497.24416910064 678.69170567156 497.24416910064 674.78770567156 C 497.24416910064 671.52370567156 498.18816910064 668.62770567156 500.07616910064 666.09970567156 C 501.96416910064 663.57170567156 504.71616910064 661.60370567156 508.33216910064 660.19570567156 C 511.94816910064 658.78770567156 516.22016910064 658.08370567156 521.14816910064 658.08370567156 C 524.79616910064 658.08370567156 528.42816910064 658.48370567156 532.04416910064 659.28370567156 C 535.66016910064 660.08370567156 538.65216910064 661.18770567156 541.02016910064 662.59570567156 L 536.02816910064 673.25170567156 C 531.48416910064 670.69170567156 526.52416910064 669.41170567156 521.14816910064 669.41170567156 C 517.94816910064 669.41170567156 515.54816910064 669.85970567156 513.94816910064 670.75570567156 C 512.34816910064 671.65170567156 511.54816910064 672.80370567156 511.54816910064 674.21170567156 C 511.54816910064 675.81170567156 512.41216910064 676.93170567156 514.14016910064 677.57170567156 C 515.86816910064 678.21170567156 518.62016910064 678.81970567156 522.39616910064 679.39570567156 C 526.62016910064 680.09970567156 530.07616910064 680.85170567156 532.76416910064 681.65170567156 C 535.45216910064 682.45170567156 537.78816910064 683.90770567156 539.77216910064 686.01970567156 C 541.75616910064 688.13170567156 542.74816910064 691.07570567156 542.74816910064 694.85170567156 C 542.74816910064 698.05170567156 541.78816910064 700.89970567156 539.86816910064 703.39570567156 C 537.94816910064 705.89170567156 535.14816910064 707.82770567156 531.46816910064 709.20370567156 C 527.78816910064 710.57970567156 523.42016910064 711.26770567156 518.36416910064 711.26770567156 C 514.07616910064 711.26770567156 509.88416910064 710.73970567156 505.78816910064 709.68370567156 Z M 603.99616910064 658.85170567156 L 603.99616910064 710.49970567156 L 589.78816910064 710.49970567156 L 589.78816910064 704.35570567156 C 587.80416910064 706.59570567156 585.43616910064 708.30770567156 582.68416910064 709.49170567156 C 579.93216910064 710.67570567156 576.95616910064 711.26770567156 573.75616910064 711.26770567156 C 566.97216910064 711.26770567156 561.59616910064 709.31570567156 557.62816910064 705.41170567156 C 553.66016910064 701.50770567156 551.67616910064 695.71570567156 551.67616910064 688.03570567156 L 551.67616910064 658.85170567156 L 566.65216910064 658.85170567156 L 566.65216910064 685.82770567156 C 566.65216910064 694.14770567156 570.14016910064 698.30770567156 577.11616910064 698.30770567156 C 580.70016910064 698.30770567156 583.58016910064 697.13970567156 585.75616910064 694.80370567156 C 587.93216910064 692.46770567156 589.02016910064 688.99570567156 589.02016910064 684.38770567156 L 589.02016910064 658.85170567156 L 603.99616910064 658.85170567156 Z M 639.46816910064 660.00370567156 C 642.50816910064 658.72370567156 646.01216910064 658.08370567156 649.98016910064 658.08370567156 L 649.98016910064 671.90770567156 C 648.31616910064 671.77970567156 647.19616910064 671.71570567156 646.62016910064 671.71570567156 C 642.33216910064 671.71570567156 638.97216910064 672.91570567156 636.54016910064 675.31570567156 C 634.10816910064 677.71570567156 632.89216910064 681.31570567156 632.89216910064 686.11570567156 L 632.89216910064 710.49970567156 L 617.91616910064 710.49970567156 L 617.91616910064 658.85170567156 L 632.22016910064 658.85170567156 L 632.22016910064 665.66770567156 C 634.01216910064 663.17170567156 636.42816910064 661.28370567156 639.46816910064 660.00370567156 Z M 697.88416910064 663.79570567156 C 702.17216910064 667.60370567156 704.31616910064 673.34770567156 704.31616910064 681.02770567156 L 704.31616910064 710.49970567156 L 690.30016910064 710.49970567156 L 690.30016910064 704.06770567156 C 687.48416910064 708.86770567156 682.23616910064 711.26770567156 674.55616910064 711.26770567156 C 670.58816910064 711.26770567156 667.14816910064 710.59570567156 664.23616910064 709.25170567156 C 661.32416910064 707.90770567156 659.10016910064 706.05170567156 657.56416910064 703.68370567156 C 656.02816910064 701.31570567156 655.26016910064 698.62770567156 655.26016910064 695.61970567156 C 655.26016910064 690.81970567156 657.06816910064 687.04370567156 660.68416910064 684.29170567156 C 664.30016910064 681.53970567156 669.88416910064 680.16370567156 677.43616910064 680.16370567156 L 689.34016910064 680.16370567156 C 689.34016910064 676.89970567156 688.34816910064 674.38770567156 686.36416910064 672.62770567156 C 684.38016910064 670.86770567156 681.40416910064 669.98770567156 677.43616910064 669.98770567156 C 674.68416910064 669.98770567156 671.98016910064 670.41970567156 669.32416910064 671.28370567156 C 666.66816910064 672.14770567156 664.41216910064 673.31570567156 662.55616910064 674.78770567156 L 657.18016910064 664.32370567156 C 659.99616910064 662.33970567156 663.37216910064 660.80370567156 667.30816910064 659.71570567156 C 671.24416910064 658.62770567156 675.29216910064 658.08370567156 679.45216910064 658.08370567156 C 687.45216910064 658.08370567156 693.59616910064 659.98770567156 697.88416910064 663.79570567156 Z M 685.11616910064 699.41170567156 C 687.10016910064 698.22770567156 688.50816910064 696.48370567156 689.34016910064 694.17970567156 L 689.34016910064 688.89970567156 L 679.06816910064 688.89970567156 C 672.92416910064 688.89970567156 669.85216910064 690.91570567156 669.85216910064 694.94770567156 C 669.85216910064 696.86770567156 670.60416910064 698.38770567156 672.10816910064 699.50770567156 C 673.61216910064 700.62770567156 675.67616910064 701.18770567156 678.30016910064 701.18770567156 C 680.86016910064 701.18770567156 683.13216910064 700.59570567156 685.11616910064 699.41170567156 Z M 764.74816910064 663.84370567156 C 768.68416910064 667.68370567156 770.65216910064 673.37970567156 770.65216910064 680.93170567156 L 770.65216910064 710.49970567156 L 755.67616910064 710.49970567156 L 755.67616910064 683.23570567156 C 755.67616910064 679.13970567156 754.78016910064 676.08370567156 752.98816910064 674.06770567156 C 751.19616910064 672.05170567156 748.60416910064 671.04370567156 745.21216910064 671.04370567156 C 741.43616910064 671.04370567156 738.42816910064 672.21170567156 736.18816910064 674.54770567156 C 733.94816910064 676.88370567156 732.82816910064 680.35570567156 732.82816910064 684.96370567156 L 732.82816910064 710.49970567156 L 717.85216910064 710.49970567156 L 717.85216910064 658.85170567156 L 732.15616910064 658.85170567156 L 732.15616910064 664.89970567156 C 734.14016910064 662.72370567156 736.60416910064 661.04370567156 739.54816910064 659.85970567156 C 742.49216910064 658.67570567156 745.72416910064 658.08370567156 749.24416910064 658.08370567156 C 755.64416910064 658.08370567156 760.81216910064 660.00370567156 764.74816910064 663.84370567156 Z M 794.89216910064 707.85970567156 C 790.50816910064 705.58770567156 787.08416910064 702.43570567156 784.62016910064 698.40370567156 C 782.15616910064 694.37170567156 780.92416910064 689.79570567156 780.92416910064 684.67570567156 C 780.92416910064 679.55570567156 782.15616910064 674.97970567156 784.62016910064 670.94770567156 C 787.08416910064 666.91570567156 790.50816910064 663.76370567156 794.89216910064 661.49170567156 C 799.27616910064 659.21970567156 804.22016910064 658.08370567156 809.72416910064 658.08370567156 C 815.16416910064 658.08370567156 819.91616910064 659.21970567156 823.98016910064 661.49170567156 C 828.04416910064 663.76370567156 831.00416910064 667.01170567156 832.86016910064 671.23570567156 L 821.24416910064 677.47570567156 C 818.55616910064 672.73970567156 814.68416910064 670.37170567156 809.62816910064 670.37170567156 C 805.72416910064 670.37170567156 802.49216910064 671.65170567156 799.93216910064 674.21170567156 C 797.37216910064 676.77170567156 796.09216910064 680.25970567156 796.09216910064 684.67570567156 C 796.09216910064 689.09170567156 797.37216910064 692.57970567156 799.93216910064 695.13970567156 C 802.49216910064 697.69970567156 805.72416910064 698.97970567156 809.62816910064 698.97970567156 C 814.74816910064 698.97970567156 818.62016910064 696.61170567156 821.24416910064 691.87570567156 L 832.86016910064 698.21170567156 C 831.00416910064 702.30770567156 828.04416910064 705.50770567156 823.98016910064 707.81170567156 C 819.91616910064 710.11570567156 815.16416910064 711.26770567156 809.72416910064 711.26770567156 C 804.22016910064 711.26770567156 799.27616910064 710.13170567156 794.89216910064 707.85970567156 Z M 891.13216910064 688.89970567156 L 852.06016910064 688.89970567156 C 852.76416910064 692.09970567156 854.42816910064 694.62770567156 857.05216910064 696.48370567156 C 859.67616910064 698.33970567156 862.94016910064 699.26770567156 866.84416910064 699.26770567156 C 869.53216910064 699.26770567156 871.91616910064 698.86770567156 873.99616910064 698.06770567156 C 876.07616910064 697.26770567156 878.01216910064 696.00370567156 879.80416910064 694.27570567156 L 887.77216910064 702.91570567156 C 882.90816910064 708.48370567156 875.80416910064 711.26770567156 866.46016910064 711.26770567156 C 860.63616910064 711.26770567156 855.48416910064 710.13170567156 851.00416910064 707.85970567156 C 846.52416910064 705.58770567156 843.06816910064 702.43570567156 840.63616910064 698.40370567156 C 838.20416910064 694.37170567156 836.98816910064 689.79570567156 836.98816910064 684.67570567156 C 836.98816910064 679.61970567156 838.18816910064 675.05970567156 840.58816910064 670.99570567156 C 842.98816910064 666.93170567156 846.28416910064 663.76370567156 850.47616910064 661.49170567156 C 854.66816910064 659.21970567156 859.35616910064 658.08370567156 864.54016910064 658.08370567156 C 869.59616910064 658.08370567156 874.17216910064 659.17170567156 878.26816910064 661.34770567156 C 882.36416910064 663.52370567156 885.58016910064 666.64370567156 887.91616910064 670.70770567156 C 890.25216910064 674.77170567156 891.42016910064 679.49170567156 891.42016910064 684.86770567156 C 891.42016910064 685.05970567156 891.32416910064 686.40370567156 891.13216910064 688.89970567156 Z M 856.09216910064 672.29170567156 C 853.78816910064 674.21170567156 852.38016910064 676.83570567156 851.86816910064 680.16370567156 L 877.30816910064 680.16370567156 C 876.79616910064 676.89970567156 875.38816910064 674.29170567156 873.08416910064 672.33970567156 C 870.78016910064 670.38770567156 867.96416910064 669.41170567156 864.63616910064 669.41170567156 C 861.24416910064 669.41170567156 858.39616910064 670.37170567156 856.09216910064 672.29170567156 Z"/></svg>